# xmcd
#
# Track frame offsets:
#	150
#	9553
#	24085
#	37560
#	52155
#	64932
#	75898
#	91982
#	103340
#	111421
#	119687
#	131999
#	157952
#	172677
#	178134
#	199082
#	206242
#	228087
#
# Disc length: 3129 seconds
#
# Revision: 1
# Processed by: cddbd v1.5.2PL0 Copyright (c) Steve Scherf et al.
# Submitted via: audiograbber 1.83.01
#
DISCID=ea0c3712
DTITLE=Hank Williams - Bound For The Promised Land
DYEAR=2010
DGENRE=Country
TTITLE0=I'll Fly Away
TTITLE1=Dear Brother
TTITLE2=Lord, Build Me A Cabin In Glory
TTITLE3=I Am Bound For The Promised Land
TTITLE4=Gathering Flowers For The Master's Bouquet
TTITLE5=Something Got Hold Of Me
TTITLE6=I've Just Told Mama Goodbye
TTITLE7=Jesus Died For Me
TTITLE8=How Can You Refuse Him Now
TTITLE9=Calling You
TTITLE10=Wait For The Light To Shine
TTITLE11=I Dreamed That The Great Judgement Morning
TTITLE12=At The Cross
TTITLE13=Introduction (Show From 1951)
TTITLE14=Next Sunday, Darling, Is My Birthday
TTITLE15=Old Joe Clark (Jerry Rivers And The Drifting Cowboys)
TTITLE16=Deck Of Cards
TTITLE17=Closing (Show From 1951)
EXTD=The unreleased recordings. Time Life. Licensed from the estate of Hank Wil
EXTD=liams
EXTT0=
EXTT1=
EXTT2=
EXTT3=
EXTT4=
EXTT5=
EXTT6=
EXTT7=
EXTT8=
EXTT9=
EXTT10=
EXTT11=
EXTT12=
EXTT13=
EXTT14=
EXTT15=
EXTT16=
EXTT17=
PLAYORDER=
